<svg id="my-svg" width="100%" xmlns="http://www.w3.org/2000/svg" xmlns:xlink="http://www.w3.org/1999/xlink" class="flowchart" style="max-width: 2090.92px; background-color: white;" viewBox="0 0 2090.921875 1786" role="graphics-document document" aria-roledescription="flowchart-v2"><style>#my-svg{font-family:"trebuchet ms",verdana,arial,sans-serif;font-size:16px;fill:#333;}@keyframes edge-animation-frame{from{stroke-dashoffset:0;}}@keyframes dash{to{stroke-dashoffset:0;}}#my-svg .edge-animation-slow{stroke-dasharray:9,5!important;stroke-dashoffset:900;animation:dash 50s linear infinite;stroke-linecap:round;}#my-svg .edge-animation-fast{stroke-dasharray:9,5!important;stroke-dashoffset:900;animation:dash 20s linear infinite;stroke-linecap:round;}#my-svg .error-icon{fill:#552222;}#my-svg .error-text{fill:#552222;stroke:#552222;}#my-svg .edge-thickness-normal{stroke-width:1px;}#my-svg .edge-thickness-thick{stroke-width:3.5px;}#my-svg .edge-pattern-solid{stroke-dasharray:0;}#my-svg .edge-thickness-invisible{stroke-width:0;fill:none;}#my-svg .edge-pattern-dashed{stroke-dasharray:3;}#my-svg .edge-pattern-dotted{stroke-dasharray:2;}#my-svg .marker{fill:#333333;stroke:#333333;}#my-svg .marker.cross{stroke:#333333;}#my-svg svg{font-family:"trebuchet ms",verdana,arial,sans-serif;font-size:16px;}#my-svg p{margin:0;}#my-svg .label{font-family:"trebuchet ms",verdana,arial,sans-serif;color:#333;}#my-svg .cluster-label text{fill:#333;}#my-svg .cluster-label span{color:#333;}#my-svg .cluster-label span p{background-color:transparent;}#my-svg .label text,#my-svg span{fill:#333;color:#333;}#my-svg .node rect,#my-svg .node circle,#my-svg .node ellipse,#my-svg .node polygon,#my-svg .node path{fill:#ECECFF;stroke:#9370DB;stroke-width:1px;}#my-svg .rough-node .label text,#my-svg .node .label text,#my-svg .image-shape .label,#my-svg .icon-shape .label{text-anchor:middle;}#my-svg .node .katex path{fill:#000;stroke:#000;stroke-width:1px;}#my-svg .rough-node .label,#my-svg .node .label,#my-svg .image-shape .label,#my-svg .icon-shape .label{text-align:center;}#my-svg .node.clickable{cursor:pointer;}#my-svg .root .anchor path{fill:#333333!important;stroke-width:0;stroke:#333333;}#my-svg .arrowheadPath{fill:#333333;}#my-svg .edgePath .path{stroke:#333333;stroke-width:1px;}#my-svg .flowchart-link{stroke:#333333;fill:none;}#my-svg .edgeLabel{background-color:rgba(232,232,232, 0.8);text-align:center;}#my-svg .edgeLabel p{background-color:rgba(232,232,232, 0.8);}#my-svg .edgeLabel rect{opacity:0.5;background-color:rgba(232,232,232, 0.8);fill:rgba(232,232,232, 0.8);}#my-svg .labelBkg{background-color:rgba(232, 232, 232, 0.5);}#my-svg .cluster rect{fill:#ffffde;stroke:#aaaa33;stroke-width:1px;}#my-svg .cluster text{fill:#333;}#my-svg .cluster span{color:#333;}#my-svg div.mermaidTooltip{position:absolute;text-align:center;max-width:200px;padding:2px;font-family:"trebuchet ms",verdana,arial,sans-serif;font-size:12px;background:hsl(80, 100%, 96.2745098039%);border:1px solid #aaaa33;border-radius:2px;pointer-events:none;z-index:100;}#my-svg .flowchartTitleText{text-anchor:middle;font-size:18px;fill:#333;}#my-svg rect.text{fill:none;stroke-width:0;}#my-svg .icon-shape,#my-svg .image-shape{background-color:rgba(232,232,232, 0.8);text-align:center;}#my-svg .icon-shape p,#my-svg .image-shape p{background-color:rgba(232,232,232, 0.8);padding:2px;}#my-svg .icon-shape .label rect,#my-svg .image-shape .label rect{opacity:0.5;background-color:rgba(232,232,232, 0.8);fill:rgba(232,232,232, 0.8);}#my-svg .label-icon{display:inline-block;height:1em;overflow:visible;vertical-align:-0.125em;}#my-svg .node .label-icon path{fill:currentColor;stroke:revert;stroke-width:revert;}#my-svg .node .neo-node{stroke:#9370DB;}#my-svg [data-look="neo"].node rect,#my-svg [data-look="neo"].cluster rect,#my-svg [data-look="neo"].node polygon{stroke:#9370DB;filter:drop-shadow(1px 2px 2px rgba(185, 185, 185, 1));}#my-svg [data-look="neo"].swimlane.cluster rect{filter:none;}#my-svg [data-look="neo"].node path{stroke:#9370DB;stroke-width:1px;}#my-svg [data-look="neo"].node .outer-path{filter:drop-shadow(1px 2px 2px rgba(185, 185, 185, 1));}#my-svg [data-look="neo"].node .neo-line path{stroke:#9370DB;filter:none;}#my-svg [data-look="neo"].node circle{stroke:#9370DB;filter:drop-shadow(1px 2px 2px rgba(185, 185, 185, 1));}#my-svg [data-look="neo"].node circle .state-start{fill:#000000;}#my-svg [data-look="neo"].icon-shape .icon{fill:#9370DB;filter:drop-shadow(1px 2px 2px rgba(185, 185, 185, 1));}#my-svg [data-look="neo"].icon-shape .icon-neo path{stroke:#9370DB;filter:drop-shadow(1px 2px 2px rgba(185, 185, 185, 1));}#my-svg :root{--mermaid-font-family:"trebuchet ms",verdana,arial,sans-serif;}#my-svg .build&gt;*{fill:rgb(31, 122, 31)!important;stroke:rgb(13, 61, 13)!important;color:rgb(255, 255, 255)!important;}#my-svg .build span{fill:rgb(31, 122, 31)!important;stroke:rgb(13, 61, 13)!important;color:rgb(255, 255, 255)!important;}#my-svg .build tspan{fill:rgb(255, 255, 255)!important;}#my-svg .gate&gt;*{fill:rgb(199, 145, 0)!important;stroke:rgb(122, 88, 0)!important;color:rgb(255, 255, 255)!important;}#my-svg .gate span{fill:rgb(199, 145, 0)!important;stroke:rgb(122, 88, 0)!important;color:rgb(255, 255, 255)!important;}#my-svg .gate tspan{fill:rgb(255, 255, 255)!important;}#my-svg .ext&gt;*{fill:rgb(58, 63, 68)!important;stroke:rgb(34, 38, 42)!important;color:rgb(221, 221, 221)!important;}#my-svg .ext span{fill:rgb(58, 63, 68)!important;stroke:rgb(34, 38, 42)!important;color:rgb(221, 221, 221)!important;}#my-svg .ext tspan{fill:rgb(221, 221, 221)!important;}</style><g><marker id="my-svg_flowchart-v2-pointEnd" class="marker flowchart-v2" viewBox="0 0 10 10" refX="5" refY="5" markerUnits="userSpaceOnUse" markerWidth="8" markerHeight="8" orient="auto"><path d="M 0 0 L 10 5 L 0 10 z" class="arrowMarkerPath" style="stroke-width: 1; stroke-dasharray: 1, 0;"/></marker><marker id="my-svg_flowchart-v2-pointStart" class="marker flowchart-v2" viewBox="0 0 10 10" refX="4.5" refY="5" markerUnits="userSpaceOnUse" markerWidth="8" markerHeight="8" orient="auto"><path d="M 0 5 L 10 10 L 10 0 z" class="arrowMarkerPath" style="stroke-width: 1; stroke-dasharray: 1, 0;"/></marker><marker id="my-svg_flowchart-v2-pointEnd-margin" class="marker flowchart-v2" viewBox="0 0 11.5 14" refX="11.5" refY="7" markerUnits="userSpaceOnUse" markerWidth="10.5" markerHeight="14" orient="auto"><path d="M 0 0 L 11.5 7 L 0 14 z" class="arrowMarkerPath" style="stroke-width: 0; stroke-dasharray: 1, 0;"/></marker><marker id="my-svg_flowchart-v2-pointStart-margin" class="marker flowchart-v2" viewBox="0 0 11.5 14" refX="1" refY="7" markerUnits="userSpaceOnUse" markerWidth="11.5" markerHeight="14" orient="auto"><polygon points="0,7 11.5,14 11.5,0" class="arrowMarkerPath" style="stroke-width: 0; stroke-dasharray: 1, 0;"/></marker><marker id="my-svg_flowchart-v2-circleEnd" class="marker flowchart-v2" viewBox="0 0 10 10" refX="11" refY="5" markerUnits="userSpaceOnUse" markerWidth="11" markerHeight="11" orient="auto"><circle cx="5" cy="5" r="5" class="arrowMarkerPath" style="stroke-width: 1; stroke-dasharray: 1, 0;"/></marker><marker id="my-svg_flowchart-v2-circleStart" class="marker flowchart-v2" viewBox="0 0 10 10" refX="-1" refY="5" markerUnits="userSpaceOnUse" markerWidth="11" markerHeight="11" orient="auto"><circle cx="5" cy="5" r="5" class="arrowMarkerPath" style="stroke-width: 1; stroke-dasharray: 1, 0;"/></marker><marker id="my-svg_flowchart-v2-circleEnd-margin" class="marker flowchart-v2" viewBox="0 0 10 10" refY="5" refX="12.25" markerUnits="userSpaceOnUse" markerWidth="14" markerHeight="14" orient="auto"><circle cx="5" cy="5" r="5" class="arrowMarkerPath" style="stroke-width: 0; stroke-dasharray: 1, 0;"/></marker><marker id="my-svg_flowchart-v2-circleStart-margin" class="marker flowchart-v2" viewBox="0 0 10 10" refX="-2" refY="5" markerUnits="userSpaceOnUse" markerWidth="14" markerHeight="14" orient="auto"><circle cx="5" cy="5" r="5" class="arrowMarkerPath" style="stroke-width: 0; stroke-dasharray: 1, 0;"/></marker><marker id="my-svg_flowchart-v2-crossEnd" class="marker cross flowchart-v2" viewBox="0 0 11 11" refX="12" refY="5.2" markerUnits="userSpaceOnUse" markerWidth="11" markerHeight="11" orient="auto"><path d="M 1,1 l 9,9 M 10,1 l -9,9" class="arrowMarkerPath" style="stroke-width: 2; stroke-dasharray: 1, 0;"/></marker><marker id="my-svg_flowchart-v2-crossStart" class="marker cross flowchart-v2" viewBox="0 0 11 11" refX="-1" refY="5.2" markerUnits="userSpaceOnUse" markerWidth="11" markerHeight="11" orient="auto"><path d="M 1,1 l 9,9 M 10,1 l -9,9" class="arrowMarkerPath" style="stroke-width: 2; stroke-dasharray: 1, 0;"/></marker><marker id="my-svg_flowchart-v2-crossEnd-margin" class="marker cross flowchart-v2" viewBox="0 0 15 15" refX="17.7" refY="7.5" markerUnits="userSpaceOnUse" markerWidth="12" markerHeight="12" orient="auto"><path d="M 1,1 L 14,14 M 1,14 L 14,1" class="arrowMarkerPath" style="stroke-width: 2.5;"/></marker><marker id="my-svg_flowchart-v2-crossStart-margin" class="marker cross flowchart-v2" viewBox="0 0 15 15" refX="-3.5" refY="7.5" markerUnits="userSpaceOnUse" markerWidth="12" markerHeight="12" orient="auto"><path d="M 1,1 L 14,14 M 1,14 L 14,1" class="arrowMarkerPath" style="stroke-width: 2.5; stroke-dasharray: 1, 0;"/></marker><g class="root"><g class="clusters"/><g class="edgePaths"><path d="M1174.613,43.535L1300.437,52.779C1426.26,62.023,1677.908,80.512,1803.731,172.506C1929.555,264.5,1929.555,430,1929.555,512.75L1929.555,595.5" id="my-svg-L_USER_RAW_0" class="edge-thickness-normal edge-pattern-solid edge-thickness-normal edge-pattern-solid flowchart-link" style=";" data-edge="true" data-et="edge" data-id="L_USER_RAW_0" data-points="W3sieCI6MTE3NC42MTMyODEyNSwieSI6NDMuNTM1MDU1MjY3ODE5MTA0fSx7IngiOjE5MjkuNTU0Njg3NSwieSI6OTl9LHsieCI6MTkyOS41NTQ2ODc1LCJ5Ijo1OTkuNX1d" data-look="classic" marker-end="url(#my-svg_flowchart-v2-pointEnd)"/><path d="M1919.434,677.5L1897.788,760.917C1876.141,844.333,1832.848,1011.167,1776.016,1125.146C1719.185,1239.126,1648.815,1300.251,1613.63,1330.814L1578.445,1361.377" id="my-svg-L_RAW_AC_0" class="edge-thickness-normal edge-pattern-solid edge-thickness-normal edge-pattern-solid flowchart-link" style=";" data-edge="true" data-et="edge" data-id="L_RAW_AC_0" data-points="W3sieCI6MTkxOS40MzQyMDU1NzIyODksInkiOjY3Ny41fSx7IngiOjE3ODkuNTU0Njg3NSwieSI6MTE3OH0seyJ4IjoxNTc1LjQyNTM5MDYyNSwieSI6MTM2NH1d" data-look="classic" marker-end="url(#my-svg_flowchart-v2-pointEnd)"/><path d="M1535.508,1496L1535.424,1516.333C1535.341,1536.667,1535.174,1577.333,1535.166,1603.25C1535.157,1629.167,1535.306,1640.334,1535.38,1645.917L1535.454,1651.5" id="my-svg-L_AC_CW_0" class="edge-thickness-normal edge-pattern-dotted edge-thickness-normal edge-pattern-solid flowchart-link" style=";" data-edge="true" data-et="edge" data-id="L_AC_CW_0" data-points="W3sieCI6MTUzNS41MDc4MTI1LCJ5IjoxNDk2fSx7IngiOjE1MzUuMDA3ODEyNSwieSI6MTYxOH0seyJ4IjoxNTM1LjUwNzgxMjUsInkiOjE2NTUuNX1d" data-look="classic" marker-end="url(#my-svg_flowchart-v2-pointEnd)"/><path d="M942.27,44.072L825.042,53.227C707.815,62.381,473.361,80.691,356.133,172.595C238.906,264.5,238.906,430,238.906,512.75L238.906,595.5" id="my-svg-L_USER_REVOKE_0" class="edge-thickness-normal edge-pattern-solid edge-thickness-normal edge-pattern-solid flowchart-link" style=";" data-edge="true" data-et="edge" data-id="L_USER_REVOKE_0" data-points="W3sieCI6OTQyLjI2OTUzMTI1LCJ5Ijo0NC4wNzIyMTYwNTIzNTQzOH0seyJ4IjoyMzguOTA2MjUsInkiOjk5fSx7IngiOjIzOC45MDYyNSwieSI6NTk5LjV9XQ==" data-look="classic" marker-end="url(#my-svg_flowchart-v2-pointEnd)"/><path d="M1174.613,52.011L1228.098,59.842C1281.583,67.674,1388.553,83.337,1442.038,154.386C1495.523,225.435,1495.523,351.87,1495.523,415.087L1495.523,478.305" id="my-svg-L_USER_V_0" class="edge-thickness-normal edge-pattern-solid edge-thickness-normal edge-pattern-solid flowchart-link" style=";" data-edge="true" data-et="edge" data-id="L_USER_V_0" data-points="W3sieCI6MTE3NC42MTMyODEyNSwieSI6NTIuMDEwNTM2ODUyMTcxMjd9LHsieCI6MTQ5NS41MjM0Mzc1LCJ5Ijo5OX0seyJ4IjoxNDk1LjUyMzQzNzUsInkiOjQ4Mi4zMDQ2ODc1fV0=" data-look="classic" marker-end="url(#my-svg_flowchart-v2-pointEnd)"/><path d="M1466.391,794.695L1454.475,858.579C1442.56,922.464,1418.729,1050.232,1419.458,1133.97C1420.187,1217.709,1445.476,1257.417,1458.121,1277.272L1470.765,1297.126" id="my-svg-L_V_AC_0" class="edge-thickness-normal edge-pattern-solid edge-thickness-normal edge-pattern-solid flowchart-link" style=";" data-edge="true" data-et="edge" data-id="L_V_AC_0" data-points="W3sieCI6MTQ2Ni4zOTA2MjMxODk4NzUsInkiOjc5NC42OTUzMTI1fSx7IngiOjEzOTQuODk4NDM3NSwieSI6MTE3OH0seyJ4IjoxNDcyLjkxMzg4NDk0MzE4MTgsInkiOjEzMDAuNX1d" data-look="classic" marker-end="url(#my-svg_flowchart-v2-pointEnd)"/><path d="M1627.949,794.695L1682.111,858.579C1736.273,922.464,1844.598,1050.232,1898.76,1137.616C1952.922,1225,1952.922,1272,1952.922,1295.5L1952.922,1319" id="my-svg-L_V_BLOCK_0" class="edge-thickness-normal edge-pattern-solid edge-thickness-normal edge-pattern-solid flowchart-link" style=";" data-edge="true" data-et="edge" data-id="L_V_BLOCK_0" data-points="W3sieCI6MTYyNy45NDg4MTYzMzY1NjAyLCJ5Ijo3OTQuNjk1MzEyNX0seyJ4IjoxOTUyLjkyMTg3NSwieSI6MTE3OH0seyJ4IjoxOTUyLjkyMTg3NSwieSI6MTMyM31d" data-look="classic" marker-end="url(#my-svg_flowchart-v2-pointEnd)"/><path d="M241.753,677.5L247.841,760.917C253.929,844.333,266.105,1011.167,270.71,1100.106C275.316,1189.046,272.351,1200.091,270.868,1205.614L269.385,1211.137" id="my-svg-L_REVOKE_DDB_0" class="edge-thickness-normal edge-pattern-solid edge-thickness-normal edge-pattern-solid flowchart-link" style=";" data-edge="true" data-et="edge" data-id="L_REVOKE_DDB_0" data-points="W3sieCI6MjQxLjc1MjYzNTU0MjE2ODY2LCJ5Ijo2NzcuNX0seyJ4IjoyNzguMjgxMjUsInkiOjExNzh9LHsieCI6MjY4LjM0ODAxMTM2MzYzNjQsInkiOjEyMTV9XQ==" data-look="classic" marker-end="url(#my-svg_flowchart-v2-pointEnd)"/><path d="M1276.313,732.613L1103.411,806.844C930.51,881.075,584.708,1029.538,411.315,1109.272C237.921,1189.005,236.937,1200.011,236.444,1205.513L235.952,1211.016" id="my-svg-L_V_DDB_0" class="edge-thickness-normal edge-pattern-dotted edge-thickness-normal edge-pattern-solid flowchart-link" style=";" data-edge="true" data-et="edge" data-id="L_V_DDB_0" data-points="W3sieCI6MTI3Ni4zMTI1LCJ5Ijo3MzIuNjEzMjI4NzIwNDYxfSx7IngiOjIzOC45MDYyNSwieSI6MTE3OH0seyJ4IjoyMzUuNTk1MTcwNDU0NTQ1NDQsInkiOjEyMTV9XQ==" data-look="classic" marker-end="url(#my-svg_flowchart-v2-pointEnd)"/><path d="M737.334,1141L736.287,1147.167C735.241,1153.333,733.148,1165.667,732.101,1195.583C731.055,1225.5,731.055,1273,731.055,1296.75L731.055,1320.5" id="my-svg-L_SIGN_KMS_0" class="edge-thickness-normal edge-pattern-dotted edge-thickness-normal edge-pattern-solid flowchart-link" style=";" data-edge="true" data-et="edge" data-id="L_SIGN_KMS_0" data-points="W3sieCI6NzM3LjMzMzY5Mjk0NDg1NjQsInkiOjExNDF9LHsieCI6NzMxLjA1NDY4NzUsInkiOjExNzh9LHsieCI6NzMxLjA1NDY4NzUsInkiOjEzMjQuNX1d" data-look="classic" marker-end="url(#my-svg_flowchart-v2-pointEnd)"/><path d="M958.95,62L936.226,68.167C913.503,74.333,868.056,86.667,845.333,98.333C822.609,110,822.609,121,822.609,126.5L822.609,132" id="my-svg-L_USER_M_0" class="edge-thickness-normal edge-pattern-solid edge-thickness-normal edge-pattern-solid flowchart-link" style=";" data-edge="true" data-et="edge" data-id="L_USER_M_0" data-points="W3sieCI6OTU4Ljk0OTc2ODA2NjQwNjIsInkiOjYyfSx7IngiOjgyMi42MDkzNzUsInkiOjk5fSx7IngiOjgyMi42MDkzNzUsInkiOjEzNn1d" data-look="classic" marker-end="url(#my-svg_flowchart-v2-pointEnd)"/><path d="M1119.372,1141L1123.013,1147.167C1126.655,1153.333,1133.939,1165.667,1185.963,1198.864C1237.987,1232.06,1334.751,1286.121,1383.134,1313.151L1431.516,1340.181" id="my-svg-L_EVAL_AC_0" class="edge-thickness-normal edge-pattern-dotted edge-thickness-normal edge-pattern-solid flowchart-link" style=";" data-edge="true" data-et="edge" data-id="L_EVAL_AC_0" data-points="W3sieCI6MTExOS4zNzE1MTM2OTkwMjY4LCJ5IjoxMTQxfSx7IngiOjExNDEuMjIyNjU2MjUsInkiOjExNzh9LHsieCI6MTQzNS4wMDc4MTI1LCJ5IjoxMzQyLjEzMTk3MjM0MzczOX1d" data-look="classic" marker-end="url(#my-svg_flowchart-v2-pointEnd)"/><path d="M418.906,988.051L382.344,1019.71C345.781,1051.368,272.656,1114.684,236.586,1151.845C200.516,1189.005,201.501,1200.011,201.993,1205.513L202.486,1211.016" id="my-svg-L_SIGN_DDB_0" class="edge-thickness-normal edge-pattern-solid edge-thickness-normal edge-pattern-solid flowchart-link" style=";" data-edge="true" data-et="edge" data-id="L_SIGN_DDB_0" data-points="W3sieCI6NDE4LjkwNjI1LCJ5Ijo5ODguMDUxNDA4MDc5ODQ1NX0seyJ4IjoxOTkuNTMxMjUsInkiOjExNzh9LHsieCI6MjAyLjg0MjMyOTU0NTQ1NDU2LCJ5IjoxMjE1fV0=" data-look="classic" marker-end="url(#my-svg_flowchart-v2-pointEnd)"/></g><g class="edgeLabels"><g class="edgeLabel" transform="translate(1929.5546875, 99)"><g class="label" data-id="L_USER_RAW_0" transform="translate(-60.390625, -12)"><foreignObject width="120.78125" height="24"><div xmlns="http://www.w3.org/1999/xhtml" class="labelBkg" style="display: table-cell; white-space: nowrap; line-height: 1.5; max-width: 200px; text-align: center;"><span class="edgeLabel"><p>raw run, NO cert</p></span></div></foreignObject></g></g><g class="edgeLabel"><g class="label" data-id="L_RAW_AC_0" transform="translate(0, 0)"><foreignObject width="0" height="0"><div xmlns="http://www.w3.org/1999/xhtml" class="labelBkg" style="display: table-cell; white-space: nowrap; line-height: 1.5; max-width: 200px; text-align: center;"><span class="edgeLabel"></span></div></foreignObject></g></g><g class="edgeLabel" transform="translate(1535.0078125, 1618)"><g class="label" data-id="L_AC_CW_0" transform="translate(-18.375, -12)"><foreignObject width="36.75" height="24"><div xmlns="http://www.w3.org/1999/xhtml" class="labelBkg" style="display: table-cell; white-space: nowrap; line-height: 1.5; max-width: 200px; text-align: center;"><span class="edgeLabel"><p>OTEL</p></span></div></foreignObject></g></g><g class="edgeLabel" transform="translate(238.90625, 99)"><g class="label" data-id="L_USER_REVOKE_0" transform="translate(-36.421875, -12)"><foreignObject width="72.84375" height="24"><div xmlns="http://www.w3.org/1999/xhtml" class="labelBkg" style="display: table-cell; white-space: nowrap; line-height: 1.5; max-width: 200px; text-align: center;"><span class="edgeLabel"><p>kill switch</p></span></div></foreignObject></g></g><g class="edgeLabel" transform="translate(1495.5234375, 99)"><g class="label" data-id="L_USER_V_0" transform="translate(-56.53125, -12)"><foreignObject width="113.0625" height="24"><div xmlns="http://www.w3.org/1999/xhtml" class="labelBkg" style="display: table-cell; white-space: nowrap; line-height: 1.5; max-width: 200px; text-align: center;"><span class="edgeLabel"><p>run on platform</p></span></div></foreignObject></g></g><g class="edgeLabel" transform="translate(1417.33004, 1057.73316)"><g class="label" data-id="L_V_AC_0" transform="translate(-30.0703125, -12)"><foreignObject width="60.140625" height="24"><div xmlns="http://www.w3.org/1999/xhtml" class="labelBkg" style="display: table-cell; white-space: nowrap; line-height: 1.5; max-width: 200px; text-align: center;"><span class="edgeLabel"><p>ALL pass</p></span></div></foreignObject></g></g><g class="edgeLabel" transform="translate(1952.921875, 1178)"><g class="label" data-id="L_V_BLOCK_0" transform="translate(-26.734375, -12)"><foreignObject width="53.46875" height="24"><div xmlns="http://www.w3.org/1999/xhtml" class="labelBkg" style="display: table-cell; white-space: nowrap; line-height: 1.5; max-width: 200px; text-align: center;"><span class="edgeLabel"><p>any fail</p></span></div></foreignObject></g></g><g class="edgeLabel"><g class="label" data-id="L_REVOKE_DDB_0" transform="translate(0, 0)"><foreignObject width="0" height="0"><div xmlns="http://www.w3.org/1999/xhtml" class="labelBkg" style="display: table-cell; white-space: nowrap; line-height: 1.5; max-width: 200px; text-align: center;"><span class="edgeLabel"></span></div></foreignObject></g></g><g class="edgeLabel" transform="translate(740.54192, 962.63414)"><g class="label" data-id="L_V_DDB_0" transform="translate(-19.375, -12)"><foreignObject width="38.75" height="24"><div xmlns="http://www.w3.org/1999/xhtml" class="labelBkg" style="display: table-cell; white-space: nowrap; line-height: 1.5; max-width: 200px; text-align: center;"><span class="edgeLabel"><p>reads</p></span></div></foreignObject></g></g><g class="edgeLabel" transform="translate(731.0546875, 1178)"><g class="label" data-id="L_SIGN_KMS_0" transform="translate(-31.3671875, -12)"><foreignObject width="62.734375" height="24"><div xmlns="http://www.w3.org/1999/xhtml" class="labelBkg" style="display: table-cell; white-space: nowrap; line-height: 1.5; max-width: 200px; text-align: center;"><span class="edgeLabel"><p>kms:Sign</p></span></div></foreignObject></g></g><g class="edgeLabel" transform="translate(822.609375, 99)"><g class="label" data-id="L_USER_M_0" transform="translate(-57.796875, -12)"><foreignObject width="115.59375" height="24"><div xmlns="http://www.w3.org/1999/xhtml" class="labelBkg" style="display: table-cell; white-space: nowrap; line-height: 1.5; max-width: 200px; text-align: center;"><span class="edgeLabel"><p>submit manifest</p></span></div></foreignObject></g></g><g class="edgeLabel" transform="translate(1141.22265625, 1178)"><g class="label" data-id="L_EVAL_AC_0" transform="translate(-64.3671875, -12)"><foreignObject width="128.734375" height="24"><div xmlns="http://www.w3.org/1999/xhtml" class="labelBkg" style="display: table-cell; white-space: nowrap; line-height: 1.5; max-width: 200px; text-align: center;"><span class="edgeLabel"><p>invokes live agent</p></span></div></foreignObject></g></g><g class="edgeLabel"><g class="label" data-id="L_SIGN_DDB_0" transform="translate(0, 0)"><foreignObject width="0" height="0"><div xmlns="http://www.w3.org/1999/xhtml" class="labelBkg" style="display: table-cell; white-space: nowrap; line-height: 1.5; max-width: 200px; text-align: center;"><span class="edgeLabel"></span></div></foreignObject></g></g></g><g class="nodes"><g class="root" transform="translate(1333.828125, 474.3046875)"><g class="clusters"><g class="cluster" id="my-svg-GATE" data-look="classic"><rect style="" x="-57.515625" y="8" width="438.421875" height="312.390625"/><g class="cluster-label" transform="translate(-53.515625, 8)"><foreignObject width="430.421875" height="24"><div xmlns="http://www.w3.org/1999/xhtml" style="display: table-cell; white-space: nowrap; line-height: 1.5;"><span class="nodeLabel"><p>R-01 Certificate Validator — POST /api/agents/{id}/execute</p></span></div></foreignObject></g></g></g><g class="edgePaths"/><g class="edgeLabels"/><g class="nodes"><g class="node default gate" id="my-svg-flowchart-V-25" data-look="classic" transform="translate(161.6953125, 164.1953125)"><polygon points="118.6953125,0 237.390625,-118.6953125 118.6953125,-237.390625 0,-118.6953125" class="label-container" transform="translate(-118.1953125, 118.6953125)" style="fill:#c79100 !important;stroke:#7a5800 !important"/><g class="label" style="color:#fff !important" transform="translate(-55.6953125, -48)"><rect/><foreignObject width="111.390625" height="96"><div style="color: rgb(255, 255, 255) !important; display: table-cell; white-space: nowrap; line-height: 1.5; max-width: 200px; text-align: center;" xmlns="http://www.w3.org/1999/xhtml"><span style="color:#fff !important" class="nodeLabel"><p>Cert found?<br />not revoked?<br />signature valid?<br />not expired?</p></span></div></foreignObject></g></g></g></g><g class="root" transform="translate(73.71875, 1207)"><g class="clusters"><g class="cluster" id="my-svg-STORE" data-look="classic"><rect style="" x="-65.71875" y="8" width="422.4375" height="366"/><g class="cluster-label" transform="translate(-61.71875, 8)"><foreignObject width="414.4375" height="24"><div xmlns="http://www.w3.org/1999/xhtml" style="display: table-cell; white-space: nowrap; line-height: 1.5;"><span class="nodeLabel"><p>Cert store (DynamoDB + S3 if configured, else local JSON)</p></span></div></foreignObject></g></g></g><g class="edgePaths"/><g class="edgeLabels"/><g class="nodes"><g class="icon-shape default" id="my-svg-flowchart-DDB-19" data-look="classic" transform="translate(145.5, 104.5)"><g transform="translate(0,-30)"><path d="M-31.4 -31.5 C-11.677447727432444 -31.5, 8.04510454513511 -31.5, 31.4 -31.5 C31.455228474983077 -31.5, 31.5 -31.455228474983077, 31.5 -31.4 C31.5 -9.514872150872833, 31.5 12.370255698254333, 31.5 31.4 C31.5 31.455228474983077, 31.455228474983077 31.5, 31.4 31.5 C9.001761315193129 31.5, -13.396477369613741 31.5, -31.4 31.5 C-31.455228474983077 31.5, -31.5 31.455228474983077, -31.5 31.4 C-31.5 13.208754331851097, -31.5 -4.982491336297805, -31.5 -31.4 C-31.5 -31.455228474983077, -31.455228474983077 -31.5, -31.4 -31.5 C-31.4 -31.5, -31.4 -31.5, -31.4 -31.5" stroke="none" stroke-width="0" fill="#ECECFF"/><path d="M-31.4 -31.5 C-16.187133025537243 -31.5, -0.9742660510744869 -31.5, 31.4 -31.5 M-31.4 -31.5 C-15.152975298565199 -31.5, 1.0940494028696008 -31.5, 31.4 -31.5 M31.4 -31.5 C31.455228474983077 -31.5, 31.5 -31.455228474983077, 31.5 -31.4 M31.4 -31.5 C31.455228474983077 -31.5, 31.5 -31.455228474983077, 31.5 -31.4 M31.5 -31.4 C31.5 -14.835964360321952, 31.5 1.7280712793560937, 31.5 31.4 M31.5 -31.4 C31.5 -15.790626893349332, 31.5 -0.1812537866986652, 31.5 31.4 M31.5 31.4 C31.5 31.455228474983077, 31.455228474983077 31.5, 31.4 31.5 M31.5 31.4 C31.5 31.455228474983077, 31.455228474983077 31.5, 31.4 31.5 M31.4 31.5 C15.095545173819616 31.5, -1.2089096523607665 31.5, -31.4 31.5 M31.4 31.5 C10.839292742221577 31.5, -9.721414515556845 31.5, -31.4 31.5 M-31.4 31.5 C-31.455228474983077 31.5, -31.5 31.455228474983077, -31.5 31.4 M-31.4 31.5 C-31.455228474983077 31.5, -31.5 31.455228474983077, -31.5 31.4 M-31.5 31.4 C-31.5 13.241152008105907, -31.5 -4.917695983788185, -31.5 -31.4 M-31.5 31.4 C-31.5 11.71474666614111, -31.5 -7.970506667717778, -31.5 -31.4 M-31.5 -31.4 C-31.5 -31.455228474983077, -31.455228474983077 -31.5, -31.4 -31.5 M-31.5 -31.4 C-31.5 -31.455228474983077, -31.455228474983077 -31.5, -31.4 -31.5 M-31.4 -31.5 C-31.4 -31.5, -31.4 -31.5, -31.4 -31.5 M-31.4 -31.5 C-31.4 -31.5, -31.4 -31.5, -31.4 -31.5" stroke="#ECECFF" stroke-width="1.3" fill="none" stroke-dasharray="0 0"/></g><g class="label" style="" transform="translate(-100,9.5)"><rect/><foreignObject width="200" height="52"><div xmlns="http://www.w3.org/1999/xhtml" class="labelBkg" style="display: table; white-space: break-spaces; line-height: 1.5; max-width: 200px; text-align: center; width: 200px;"><span class="nodeLabel markdown-node-label"><p>DynamoDB — certs · manifests · revocations</p></span></div></foreignObject></g><g><path d="M-100 -61.5 L100 -61.5 L100 61.5 L-100 61.5" stroke="none" stroke-width="0" fill="transparent"/></g><g transform="translate(-24,-54)" style="color: #9370DB;"><g><svg xmlns="http://www.w3.org/2000/svg" width="48" height="48" viewBox="0 0 256 256"><defs><linearGradient id="IconifyId19f144e6e05ffc1b50" x1="0%" x2="100%" y1="100%" y2="0%"><stop offset="0%" stop-color="#2e27ad"/><stop offset="100%" stop-color="#527fff"/></linearGradient></defs><path fill="url(#IconifyId19f144e6e05ffc1b50)" d="M0 0h256v256H0z"/><path fill="#fff" d="M166.675 175.52c-10.682 8.637-33.091 13.2-54.534 13.2c-21.447 0-43.863-4.566-54.541-13.202v17.392h.003c0 8.675 22.397 18.342 54.538 18.342c32.115 0 54.499-9.655 54.534-18.323zm.003-33.049l6.4-.035v.035c0 3.866-1.936 7.475-5.705 10.779c4.57 4.021 5.705 7.966 5.705 10.775c0 .02-.003.035-.003.054v28.831h.003c0 16.035-31.398 24.69-60.937 24.69c-29.469 0-60.781-8.617-60.931-24.578c0-.016-.01-.032-.01-.048v-28.958c0-.007.006-.016.006-.026c.01-2.809 1.15-6.738 5.712-10.75c-4.534-4.005-5.686-7.912-5.715-10.699h.003c0-.013-.006-.022-.006-.035v-28.958c0-.01.006-.02.006-.029c.01-2.809 1.152-6.738 5.716-10.743c-4.538-4.009-5.69-7.92-5.719-10.703h.003c0-.012-.006-.025-.006-.038V63.08c0-.01.006-.019.006-.029C51.261 47.04 82.624 38.4 112.141 38.4c16.675 0 32.694 2.65 43.948 7.271l-2.448 5.866c-10.505-4.314-25.632-6.79-41.5-6.79c-32.141 0-54.538 9.668-54.538 18.349c0 8.677 22.397 18.345 54.538 18.345c.867.01 1.715 0 2.573-.032l.268 6.342c-.947.038-1.894.038-2.841.038c-21.447 0-43.863-4.568-54.541-13.204V91.97h.003v.073c.032 3.329 3.447 6.236 6.307 8.083c8.608 5.488 24.032 9.236 41.232 10.014l-.29 6.341c-17.425-.79-32.682-4.405-42.503-9.946c-2.42 1.809-4.746 4.256-4.746 7.03c0 8.677 22.397 18.345 54.538 18.345c3.152 0 6.281-.105 9.305-.315l.445 6.332c-3.168.22-6.451.33-9.75.33c-21.447 0-43.863-4.567-54.541-13.203v17.383h.003c.032 3.403 3.447 6.307 6.307 8.157c9.844 6.281 28.327 10.192 48.23 10.192h1.409v6.347h-1.408c-20.221 0-38.599-3.754-49.837-10.099c-2.406 1.806-4.7 4.24-4.7 6.992c0 8.677 22.396 18.348 54.537 18.348c32.115 0 54.499-9.655 54.534-18.326v-.035c-.006-2.758-2.31-5.192-4.723-6.998a45 45 0 0 1-5.14 2.523l-2.45-5.865c2.323-.955 4.339-1.987 5.993-3.072c2.886-1.883 6.323-4.825 6.323-8.129m27.411-46.418h-17.932c-1.06 0-2.055-.52-2.647-1.39a3.14 3.14 0 0 1-.33-2.951l10.91-27.27h-41.31l-19.2 38.086h20.423c1.02 0 1.98.486 2.586 1.301c.598.82.774 1.87.464 2.838l-18.228 56.818zm9.821-.974l-79.996 82.648a3.22 3.22 0 0 1-2.31.974a3.2 3.2 0 0 1-1.636-.444a3.16 3.16 0 0 1-1.414-3.692l21.075-65.69h-21.226a3.21 3.21 0 0 1-2.723-1.504a3.15 3.15 0 0 1-.138-3.088l22.4-44.434a3.2 3.2 0 0 1 2.861-1.755h48a3.21 3.21 0 0 1 2.646 1.39a3.15 3.15 0 0 1 .33 2.955L180.87 89.706h20.73c1.28 0 2.441.761 2.944 1.93a3.16 3.16 0 0 1-.634 3.443M62.256 194.158c4.534 2.555 10.243 4.703 16.966 6.38l1.562-6.158c-6.077-1.514-11.389-3.5-15.366-5.742zm16.966-44.403l1.562-6.154c-6.077-1.517-11.389-3.504-15.366-5.745l-3.162 5.52c4.534 2.555 10.24 4.704 16.966 6.38M62.256 92.594l3.162-5.52c3.97 2.241 9.286 4.225 15.366 5.745l-1.562 6.154c-6.732-1.679-12.438-3.827-16.966-6.38"/></svg></g></g></g><g class="icon-shape default" id="my-svg-flowchart-S3-21" data-look="classic" transform="translate(145.5, 277.5)"><g transform="translate(0,-30)"><path d="M-31.4 -31.5 C-17.533197037089373 -31.5, -3.666394074178747 -31.5, 31.4 -31.5 C31.455228474983077 -31.5, 31.5 -31.455228474983077, 31.5 -31.4 C31.5 -6.3575848808606885, 31.5 18.68483023827862, 31.5 31.4 C31.5 31.455228474983077, 31.455228474983077 31.5, 31.4 31.5 C17.74626549349037 31.5, 4.092530986980744 31.5, -31.4 31.5 C-31.455228474983077 31.5, -31.5 31.455228474983077, -31.5 31.4 C-31.5 12.736907827164448, -31.5 -5.926184345671103, -31.5 -31.4 C-31.5 -31.455228474983077, -31.455228474983077 -31.5, -31.4 -31.5 C-31.4 -31.5, -31.4 -31.5, -31.4 -31.5" stroke="none" stroke-width="0" fill="#ECECFF"/><path d="M-31.4 -31.5 C-11.58140169817285 -31.5, 8.237196603654297 -31.5, 31.4 -31.5 M-31.4 -31.5 C-18.502386038989144 -31.5, -5.604772077978289 -31.5, 31.4 -31.5 M31.4 -31.5 C31.455228474983077 -31.5, 31.5 -31.455228474983077, 31.5 -31.4 M31.4 -31.5 C31.455228474983077 -31.5, 31.5 -31.455228474983077, 31.5 -31.4 M31.5 -31.4 C31.5 -17.099066536893282, 31.5 -2.7981330737865697, 31.5 31.4 M31.5 -31.4 C31.5 -12.881542093221274, 31.5 5.636915813557451, 31.5 31.4 M31.5 31.4 C31.5 31.455228474983077, 31.455228474983077 31.5, 31.4 31.5 M31.5 31.4 C31.5 31.455228474983077, 31.455228474983077 31.5, 31.4 31.5 M31.4 31.5 C13.638464982678855 31.5, -4.123070034642289 31.5, -31.4 31.5 M31.4 31.5 C8.171455104039417 31.5, -15.057089791921165 31.5, -31.4 31.5 M-31.4 31.5 C-31.455228474983077 31.5, -31.5 31.455228474983077, -31.5 31.4 M-31.4 31.5 C-31.455228474983077 31.5, -31.5 31.455228474983077, -31.5 31.4 M-31.5 31.4 C-31.5 9.398771088794948, -31.5 -12.602457822410102, -31.5 -31.4 M-31.5 31.4 C-31.5 16.263987440341673, -31.5 1.1279748806833503, -31.5 -31.4 M-31.5 -31.4 C-31.5 -31.455228474983077, -31.455228474983077 -31.5, -31.4 -31.5 M-31.5 -31.4 C-31.5 -31.455228474983077, -31.455228474983077 -31.5, -31.4 -31.5 M-31.4 -31.5 C-31.4 -31.5, -31.4 -31.5, -31.4 -31.5 M-31.4 -31.5 C-31.4 -31.5, -31.4 -31.5, -31.4 -31.5" stroke="#ECECFF" stroke-width="1.3" fill="none" stroke-dasharray="0 0"/></g><g class="label" style="" transform="translate(-100,9.5)"><rect/><foreignObject width="200" height="52"><div xmlns="http://www.w3.org/1999/xhtml" class="labelBkg" style="display: table; white-space: break-spaces; line-height: 1.5; max-width: 200px; text-align: center; width: 200px;"><span class="nodeLabel markdown-node-label"><p>S3 Object Lock — immutable cert archive</p></span></div></foreignObject></g><g><path d="M-100 -61.5 L100 -61.5 L100 61.5 L-100 61.5" stroke="none" stroke-width="0" fill="transparent"/></g><g transform="translate(-24,-54)" style="color: #9370DB;"><g><svg xmlns="http://www.w3.org/2000/svg" width="48" height="48" viewBox="0 0 256 256"><defs><linearGradient id="IconifyId19f144e6e05ffc1b52" x1="0%" x2="100%" y1="100%" y2="0%"><stop offset="0%" stop-color="#1b660f"/><stop offset="100%" stop-color="#6cae3e"/></linearGradient></defs><path fill="url(#IconifyId19f144e6e05ffc1b52)" d="M0 0h256v256H0z"/><path fill="#fff" d="m194.675 137.256l1.229-8.652c11.33 6.787 11.478 9.59 11.475 9.667c-.02.016-1.952 1.629-12.704-1.015m-6.218-1.728c-19.584-5.926-46.857-18.438-57.894-23.654c0-.045.013-.086.013-.131c0-4.24-3.45-7.69-7.693-7.69c-4.237 0-7.687 3.45-7.687 7.69s3.45 7.69 7.687 7.69c1.862 0 3.552-.695 4.886-1.8c12.986 6.148 40.048 18.478 59.776 24.302l-7.801 55.059q-.033.225-.032.451c0 4.848-21.463 13.754-56.532 13.754c-35.44 0-57.13-8.906-57.13-13.754q0-.22-.028-.435l-16.3-119.062c14.108 9.712 44.454 14.85 73.478 14.85c28.979 0 59.273-5.12 73.41-14.802zM48 65.528c.23-4.21 24.428-20.73 75.2-20.73c50.764 0 74.966 16.516 75.2 20.73v1.437c-2.784 9.443-34.144 19.434-75.2 19.434c-41.127 0-72.503-10.023-75.2-19.479zm156.8.07c0-11.087-31.79-27.2-81.6-27.2c-49.812 0-81.6 16.113-81.6 27.2l.3 2.414l17.754 129.676c.426 14.503 39.1 19.91 63.526 19.91c30.31 0 62.512-6.969 62.928-19.9l7.668-54.07c4.265 1.02 7.776 1.542 10.595 1.542c3.785 0 6.345-.925 7.897-2.774c1.274-1.517 1.76-3.354 1.396-5.31c-.83-4.428-6.087-9.202-16.794-15.311l7.603-53.639z"/></svg></g></g></g></g></g><g class="root" transform="translate(410.90625, 128)"><g class="clusters"><g class="cluster" id="my-svg-BUILD" data-look="classic"><rect style="" x="8" y="8" width="807.40625" height="1005"/><g class="cluster-label" transform="translate(85.515625, 8)"><foreignObject width="652.375" height="24"><div xmlns="http://www.w3.org/1999/xhtml" style="display: table-cell; white-space: nowrap; line-height: 1.5;"><span class="nodeLabel"><p>BUILD pipeline — POST /api/agents/submit (background job, polled via /api/pipeline/{id})</p></span></div></foreignObject></g></g></g><g class="edgePaths"><path d="M489.203,171.5L489.203,177.75C489.203,184,489.203,196.5,489.203,208.333C489.203,220.167,489.203,231.333,489.203,236.917L489.203,242.5" id="my-svg-L_M_CAP_0" class="edge-thickness-normal edge-pattern-solid edge-thickness-normal edge-pattern-solid flowchart-link" style=";" data-edge="true" data-et="edge" data-id="L_M_CAP_0" data-points="W3sieCI6NDg5LjIwMzEyNSwieSI6MTcxLjV9LHsieCI6NDg5LjIwMzEyNSwieSI6MjA5fSx7IngiOjQ4OS4yMDMxMjUsInkiOjI0Ni41fV0=" data-look="classic" marker-end="url(#my-svg_flowchart-v2-pointEnd)"/><path d="M410.546,348.5L397.823,356.75C385.099,365,359.651,381.5,346.927,397.333C334.203,413.167,334.203,428.333,334.203,435.917L334.203,443.5" id="my-svg-L_CAP_RISK_0" class="edge-thickness-normal edge-pattern-solid edge-thickness-normal edge-pattern-solid flowchart-link" style=";" data-edge="true" data-et="edge" data-id="L_CAP_RISK_0" data-points="W3sieCI6NDEwLjU0NjQwODU4MjA4OTU1LCJ5IjozNDguNX0seyJ4IjozMzQuMjAzMTI1LCJ5IjozOTh9LHsieCI6MzM0LjIwMzEyNSwieSI6NDQ3LjV9XQ==" data-look="classic" marker-end="url(#my-svg_flowchart-v2-pointEnd)"/><path d="M334.203,549.5L334.203,555.75C334.203,562,334.203,574.5,334.203,586.333C334.203,598.167,334.203,609.333,334.203,614.917L334.203,620.5" id="my-svg-L_RISK_EVAL_0" class="edge-thickness-normal edge-pattern-solid edge-thickness-normal edge-pattern-solid flowchart-link" style=";" data-edge="true" data-et="edge" data-id="L_RISK_EVAL_0" data-points="W3sieCI6MzM0LjIwMzEyNSwieSI6NTQ5LjV9LHsieCI6MzM0LjIwMzEyNSwieSI6NTg3fSx7IngiOjMzNC4yMDMxMjUsInkiOjYyNC41fV0=" data-look="classic" marker-end="url(#my-svg_flowchart-v2-pointEnd)"/><path d="M240.83,774.5L230.559,782.75C220.287,791,199.745,807.5,189.474,823.333C179.203,839.167,179.203,854.333,179.203,861.917L179.203,869.5" id="my-svg-L_EVAL_SIGN_0" class="edge-thickness-normal edge-pattern-solid edge-thickness-normal edge-pattern-solid flowchart-link" style=";" data-edge="true" data-et="edge" data-id="L_EVAL_SIGN_0" data-points="W3sieCI6MjQwLjgyOTYzMTAyNDA5NjQsInkiOjc3NC41fSx7IngiOjE3OS4yMDMxMjUsInkiOjgyNH0seyJ4IjoxNzkuMjAzMTI1LCJ5Ijo4NzMuNX1d" data-look="classic" marker-end="url(#my-svg_flowchart-v2-pointEnd)"/><path d="M567.86,348.5L580.584,356.75C593.308,365,618.755,381.5,631.479,399.333C644.203,417.167,644.203,436.333,644.203,445.917L644.203,455.5" id="my-svg-L_CAP_REJ1_0" class="edge-thickness-normal edge-pattern-solid edge-thickness-normal edge-pattern-solid flowchart-link" style=";" data-edge="true" data-et="edge" data-id="L_CAP_REJ1_0" data-points="W3sieCI6NTY3Ljg1OTg0MTQxNzkxMDUsInkiOjM0OC41fSx7IngiOjY0NC4yMDMxMjUsInkiOjM5OH0seyJ4Ijo2NDQuMjAzMTI1LCJ5Ijo0NTkuNX1d" data-look="classic" marker-end="url(#my-svg_flowchart-v2-pointEnd)"/><path d="M427.577,774.5L437.848,782.75C448.119,791,468.661,807.5,478.932,825.333C489.203,843.167,489.203,862.333,489.203,871.917L489.203,881.5" id="my-svg-L_EVAL_REJ2_0" class="edge-thickness-normal edge-pattern-solid edge-thickness-normal edge-pattern-solid flowchart-link" style=";" data-edge="true" data-et="edge" data-id="L_EVAL_REJ2_0" data-points="W3sieCI6NDI3LjU3NjYxODk3NTkwMzYsInkiOjc3NC41fSx7IngiOjQ4OS4yMDMxMjUsInkiOjgyNH0seyJ4Ijo0ODkuMjAzMTI1LCJ5Ijo4ODUuNX1d" data-look="classic" marker-end="url(#my-svg_flowchart-v2-pointEnd)"/></g><g class="edgeLabels"><g class="edgeLabel"><g class="label" data-id="L_M_CAP_0" transform="translate(0, 0)"><foreignObject width="0" height="0"><div xmlns="http://www.w3.org/1999/xhtml" class="labelBkg" style="display: table-cell; white-space: nowrap; line-height: 1.5; max-width: 200px; text-align: center;"><span class="edgeLabel"></span></div></foreignObject></g></g><g class="edgeLabel" transform="translate(334.203125, 398)"><g class="label" data-id="L_CAP_RISK_0" transform="translate(-15.140625, -12)"><foreignObject width="30.28125" height="24"><div xmlns="http://www.w3.org/1999/xhtml" class="labelBkg" style="display: table-cell; white-space: nowrap; line-height: 1.5; max-width: 200px; text-align: center;"><span class="edgeLabel"><p>pass</p></span></div></foreignObject></g></g><g class="edgeLabel"><g class="label" data-id="L_RISK_EVAL_0" transform="translate(0, 0)"><foreignObject width="0" height="0"><div xmlns="http://www.w3.org/1999/xhtml" class="labelBkg" style="display: table-cell; white-space: nowrap; line-height: 1.5; max-width: 200px; text-align: center;"><span class="edgeLabel"></span></div></foreignObject></g></g><g class="edgeLabel" transform="translate(179.203125, 824)"><g class="label" data-id="L_EVAL_SIGN_0" transform="translate(-26.46875, -12)"><foreignObject width="52.9375" height="24"><div xmlns="http://www.w3.org/1999/xhtml" class="labelBkg" style="display: table-cell; white-space: nowrap; line-height: 1.5; max-width: 200px; text-align: center;"><span class="edgeLabel"><p>all pass</p></span></div></foreignObject></g></g><g class="edgeLabel" transform="translate(644.203125, 398)"><g class="label" data-id="L_CAP_REJ1_0" transform="translate(-11.8046875, -12)"><foreignObject width="23.609375" height="24"><div xmlns="http://www.w3.org/1999/xhtml" class="labelBkg" style="display: table-cell; white-space: nowrap; line-height: 1.5; max-width: 200px; text-align: center;"><span class="edgeLabel"><p>fail</p></span></div></foreignObject></g></g><g class="edgeLabel" transform="translate(489.203125, 824)"><g class="label" data-id="L_EVAL_REJ2_0" transform="translate(-57.5703125, -12)"><foreignObject width="115.140625" height="24"><div xmlns="http://www.w3.org/1999/xhtml" class="labelBkg" style="display: table-cell; white-space: nowrap; line-height: 1.5; max-width: 200px; text-align: center;"><span class="edgeLabel"><p>below threshold</p></span></div></foreignObject></g></g></g><g class="nodes"><g class="node default build" id="my-svg-flowchart-M-1" data-look="classic" transform="translate(489.203125, 108.5)"><rect class="basic label-container" style="fill:#1f7a1f !important;stroke:#0d3d0d !important" x="-130" y="-63" width="260" height="126"/><g class="label" style="color:#fff !important" transform="translate(-100, -48)"><rect/><foreignObject width="200" height="96"><div style="color: rgb(255, 255, 255) !important; display: table; white-space: break-spaces; line-height: 1.5; max-width: 200px; text-align: center; width: 200px;" xmlns="http://www.w3.org/1999/xhtml"><span style="color:#fff !important" class="nodeLabel"><p>1 · Manifest intake<br />agent_id, framework, target,<br />capabilities, risk_inputs</p></span></div></foreignObject></g></g><g class="node default build" id="my-svg-flowchart-CAP-2" data-look="classic" transform="translate(489.203125, 297.5)"><rect class="basic label-container" style="fill:#1f7a1f !important;stroke:#0d3d0d !important" x="-142.40625" y="-51" width="284.8125" height="102"/><g class="label" style="color:#fff !important" transform="translate(-112.40625, -36)"><rect/><foreignObject width="224.8125" height="72"><div style="color: rgb(255, 255, 255) !important; display: table; white-space: break-spaces; line-height: 1.5; max-width: 200px; text-align: center; width: 200px;" xmlns="http://www.w3.org/1999/xhtml"><span style="color:#fff !important" class="nodeLabel"><p>2 · Capability validation<br />tools/models/data/framework ⊆ allowlist.yaml</p></span></div></foreignObject></g></g><g class="node default build" id="my-svg-flowchart-RISK-3" data-look="classic" transform="translate(334.203125, 498.5)"><rect class="basic label-container" style="fill:#1f7a1f !important;stroke:#0d3d0d !important" x="-130" y="-51" width="260" height="102"/><g class="label" style="color:#fff !important" transform="translate(-100, -36)"><rect/><foreignObject width="200" height="72"><div style="color: rgb(255, 255, 255) !important; display: table; white-space: break-spaces; line-height: 1.5; max-width: 200px; text-align: center; width: 200px;" xmlns="http://www.w3.org/1999/xhtml"><span style="color:#fff !important" class="nodeLabel"><p>3 · Risk scoring<br />3·PII + 3·external + 2·write → Tier 1-3</p></span></div></foreignObject></g></g><g class="node default build" id="my-svg-flowchart-EVAL-4" data-look="classic" transform="translate(334.203125, 699.5)"><rect class="basic label-container" style="fill:#1f7a1f !important;stroke:#0d3d0d !important" x="-130" y="-75" width="260" height="150"/><g class="label" style="color:#fff !important" transform="translate(-100, -60)"><rect/><foreignObject width="200" height="120"><div style="color: rgb(255, 255, 255) !important; display: table; white-space: break-spaces; line-height: 1.5; max-width: 200px; text-align: center; width: 200px;" xmlns="http://www.w3.org/1999/xhtml"><span style="color:#fff !important" class="nodeLabel"><p>4 · Live eval (runs the REAL agent)<br />① accuracy ≥0.80  ② guardrail/injection =1.0  ③ capability =1.0</p></span></div></foreignObject></g></g><g class="node default build" id="my-svg-flowchart-SIGN-5" data-look="classic" transform="translate(179.203125, 924.5)"><rect class="basic label-container" style="fill:#1f7a1f !important;stroke:#0d3d0d !important" x="-130" y="-51" width="260" height="102"/><g class="label" style="color:#fff !important" transform="translate(-100, -36)"><rect/><foreignObject width="200" height="72"><div style="color: rgb(255, 255, 255) !important; display: table; white-space: break-spaces; line-height: 1.5; max-width: 200px; text-align: center; width: 200px;" xmlns="http://www.w3.org/1999/xhtml"><span style="color:#fff !important" class="nodeLabel"><p>5 · Issue certificate<br />assemble cert JSON → sign → store</p></span></div></foreignObject></g></g><g class="node default ext" id="my-svg-flowchart-REJ1-12" data-look="classic" transform="translate(644.203125, 498.5)"><rect class="basic label-container" style="fill:#3a3f44 !important;stroke:#22262a !important" x="-130" y="-39" width="260" height="78"/><g class="label" style="color:#ddd !important" transform="translate(-100, -24)"><rect/><foreignObject width="200" height="48"><div style="color: rgb(221, 221, 221) !important; display: table; white-space: break-spaces; line-height: 1.5; max-width: 200px; text-align: center; width: 200px;" xmlns="http://www.w3.org/1999/xhtml"><span style="color:#ddd !important" class="nodeLabel"><p>REJECTED · CAPABILITY_DENIED</p></span></div></foreignObject></g></g><g class="node default ext" id="my-svg-flowchart-REJ2-14" data-look="classic" transform="translate(489.203125, 924.5)"><rect class="basic label-container" style="fill:#3a3f44 !important;stroke:#22262a !important" x="-130" y="-39" width="260" height="78"/><g class="label" style="color:#ddd !important" transform="translate(-100, -24)"><rect/><foreignObject width="200" height="48"><div style="color: rgb(221, 221, 221) !important; display: table; white-space: break-spaces; line-height: 1.5; max-width: 200px; text-align: center; width: 200px;" xmlns="http://www.w3.org/1999/xhtml"><span style="color:#ddd !important" class="nodeLabel"><p>REJECTED · EVAL_FAILED · no cert</p></span></div></foreignObject></g></g></g></g><g class="node default ext" id="my-svg-flowchart-USER-0" data-look="classic" transform="translate(1058.44140625, 35)"><rect class="basic label-container" style="fill:#3a3f44 !important;stroke:#22262a !important" x="-116.171875" y="-27" width="232.34375" height="54"/><g class="label" style="color:#ddd !important" transform="translate(-86.171875, -12)"><rect/><foreignObject width="172.34375" height="24"><div style="color: rgb(221, 221, 221) !important; display: table-cell; white-space: nowrap; line-height: 1.5; max-width: 200px; text-align: center;" xmlns="http://www.w3.org/1999/xhtml"><span style="color:#ddd !important" class="nodeLabel"><p>Developer / Platform UI</p></span></div></foreignObject></g></g><g class="icon-shape default" id="my-svg-flowchart-KMS-15" data-look="classic" transform="translate(731.0546875, 1398)"><g transform="translate(0,-42)"><path d="M-31.4 -31.5 C-9.67219669306294 -31.5, 12.055606613874119 -31.5, 31.4 -31.5 C31.455228474983077 -31.5, 31.5 -31.455228474983077, 31.5 -31.4 C31.5 -8.729037592035365, 31.5 13.94192481592927, 31.5 31.4 C31.5 31.455228474983077, 31.455228474983077 31.5, 31.4 31.5 C7.229134674754544 31.5, -16.94173065049091 31.5, -31.4 31.5 C-31.455228474983077 31.5, -31.5 31.455228474983077, -31.5 31.4 C-31.5 14.479135597406582, -31.5 -2.441728805186834, -31.5 -31.4 C-31.5 -31.455228474983077, -31.455228474983077 -31.5, -31.4 -31.5 C-31.4 -31.5, -31.4 -31.5, -31.4 -31.5" stroke="none" stroke-width="0" fill="#ECECFF"/><path d="M-31.4 -31.5 C-15.868939722490703 -31.5, -0.3378794449814073 -31.5, 31.4 -31.5 M-31.4 -31.5 C-16.149994595430726 -31.5, -0.8999891908614579 -31.5, 31.4 -31.5 M31.4 -31.5 C31.455228474983077 -31.5, 31.5 -31.455228474983077, 31.5 -31.4 M31.4 -31.5 C31.455228474983077 -31.5, 31.5 -31.455228474983077, 31.5 -31.4 M31.5 -31.4 C31.5 -16.246161514675002, 31.5 -1.092323029350009, 31.5 31.4 M31.5 -31.4 C31.5 -15.33985566347609, 31.5 0.7202886730478184, 31.5 31.4 M31.5 31.4 C31.5 31.455228474983077, 31.455228474983077 31.5, 31.4 31.5 M31.5 31.4 C31.5 31.455228474983077, 31.455228474983077 31.5, 31.4 31.5 M31.4 31.5 C11.561742686081601 31.5, -8.276514627836796 31.5, -31.4 31.5 M31.4 31.5 C11.362976343230446 31.5, -8.674047313539106 31.5, -31.4 31.5 M-31.4 31.5 C-31.455228474983077 31.5, -31.5 31.455228474983077, -31.5 31.4 M-31.4 31.5 C-31.455228474983077 31.5, -31.5 31.455228474983077, -31.5 31.4 M-31.5 31.4 C-31.5 14.748122067819796, -31.5 -1.9037558643604058, -31.5 -31.4 M-31.5 31.4 C-31.5 13.606307931528153, -31.5 -4.187384136943692, -31.5 -31.4 M-31.5 -31.4 C-31.5 -31.455228474983077, -31.455228474983077 -31.5, -31.4 -31.5 M-31.5 -31.4 C-31.5 -31.455228474983077, -31.455228474983077 -31.5, -31.4 -31.5 M-31.4 -31.5 C-31.4 -31.5, -31.4 -31.5, -31.4 -31.5 M-31.4 -31.5 C-31.4 -31.5, -31.4 -31.5, -31.4 -31.5" stroke="#ECECFF" stroke-width="1.3" fill="none" stroke-dasharray="0 0"/></g><g class="label" style="" transform="translate(-100,-2.5)"><rect/><foreignObject width="200" height="76"><div xmlns="http://www.w3.org/1999/xhtml" class="labelBkg" style="display: table; white-space: break-spaces; line-height: 1.5; max-width: 200px; text-align: center; width: 200px;"><span class="nodeLabel markdown-node-label"><p>AWS KMS — asymmetric sign / verify (RSA fallback if no key)</p></span></div></foreignObject></g><g><path d="M-100 -73.5 L100 -73.5 L100 73.5 L-100 73.5" stroke="none" stroke-width="0" fill="transparent"/></g><g transform="translate(-24,-66)" style="color: #9370DB;"><g><svg xmlns="http://www.w3.org/2000/svg" width="48" height="48" viewBox="0 0 256 256"><defs><linearGradient id="IconifyId19f144e6e05ffc1b53" x1="0%" x2="100%" y1="100%" y2="0%"><stop offset="0%" stop-color="#bd0816"/><stop offset="100%" stop-color="#ff5252"/></linearGradient></defs><path fill="url(#IconifyId19f144e6e05ffc1b53)" d="M0 0h256v256H0z"/><path fill="#fff" d="M166.39 167.988h22.4v-6.4h-22.4zm-28.8 0h22.4v-6.4h-22.4zm-28.8 0h22.4v-6.4h-22.4zm35.2-25.6c0-3.53 2.874-6.4 6.4-6.4c3.53 0 6.4 2.87 6.4 6.4s-2.87 6.4-6.4 6.4c-3.526 0-6.4-2.87-6.4-6.4m19.2 0c0-7.059-5.738-12.8-12.8-12.8c-7.06 0-12.8 5.741-12.8 12.8s5.74 12.8 12.8 12.8c7.062 0 12.8-5.74 12.8-12.8m-44.8-6.4c3.53 0 6.4 2.87 6.4 6.4s-2.87 6.4-6.4 6.4c-3.526 0-6.4-2.87-6.4-6.4s2.874-6.4 6.4-6.4m0 19.2c7.062 0 12.8-5.74 12.8-12.8c0-7.059-5.738-12.8-12.8-12.8c-7.06 0-12.8 5.741-12.8 12.8s5.74 12.8 12.8 12.8m92.8-48v73.6a3.2 3.2 0 0 1-3.2 3.2h-99.2v-6.4h96v-67.2h-70.4v-6.4h73.6a3.2 3.2 0 0 1 3.2 3.2m-112.963 16.15a3.2 3.2 0 0 0-2.237 3.05v67.328l-7.677 6.583l-8.323-9.514v-8.397c0-.848-.336-1.664-.938-2.262l-7.334-7.338l7.334-7.337a3.2 3.2 0 0 0 .938-2.263v-6.4c0-.848-.336-1.664-.938-2.262l-7.334-7.338l7.334-7.337a3.2 3.2 0 0 0 .938-2.263V126.42c0-1.395-.902-2.63-2.234-3.05c-16.454-5.215-26.182-22.14-22.62-39.372c2.566-12.416 12.115-22.371 24.323-25.363c10.397-2.55 21.06-.32 29.251 6.102c8.186 6.422 12.88 16.064 12.88 26.451c0 14.57-9.606 27.792-23.363 32.15m29.763-32.15c0-12.365-5.587-23.843-15.331-31.488s-22.39-10.304-34.723-7.28c-14.596 3.575-26.004 15.463-29.07 30.282v.003C44.804 102.37 55.36 121.71 73.59 128.69v7.574l-8.662 8.663a3.2 3.2 0 0 0 0 4.525l8.662 8.662v3.75l-8.662 8.663a3.2 3.2 0 0 0 0 4.525l8.662 8.662v8.275c0 .775.282 1.523.794 2.11l11.2 12.8a3.2 3.2 0 0 0 4.49.32l11.2-9.6a3.2 3.2 0 0 0 1.116-2.43v-66.534c15.187-5.863 25.6-20.935 25.6-37.466m-40 7.584c-4.41 0-8-3.587-8-8c0-4.41 3.59-8 8-8c4.413 0 8 3.59 8 8c0 4.413-3.587 8-8 8m0-22.4c-7.94 0-14.4 6.461-14.4 14.4c0 7.943 6.46 14.4 14.4 14.4c7.942 0 14.4-6.457 14.4-14.4c0-7.939-6.458-14.4-14.4-14.4"/></svg></g></g></g><g class="icon-shape default" id="my-svg-flowchart-AC-26" data-look="classic" transform="translate(1535.0078125, 1398)"><g transform="translate(0,-66)"><path d="M-31.4 -31.5 C-7.3060040628777365 -31.5, 16.787991874244526 -31.5, 31.4 -31.5 C31.455228474983077 -31.5, 31.5 -31.455228474983077, 31.5 -31.4 C31.5 -10.43592002992894, 31.5 10.528159940142118, 31.5 31.4 C31.5 31.455228474983077, 31.455228474983077 31.5, 31.4 31.5 C12.043895184792078 31.5, -7.312209630415843 31.5, -31.4 31.5 C-31.455228474983077 31.5, -31.5 31.455228474983077, -31.5 31.4 C-31.5 17.274287767280725, -31.5 3.148575534561452, -31.5 -31.4 C-31.5 -31.455228474983077, -31.455228474983077 -31.5, -31.4 -31.5 C-31.4 -31.5, -31.4 -31.5, -31.4 -31.5" stroke="none" stroke-width="0" fill="#ECECFF"/><path d="M-31.4 -31.5 C-15.763128671730069 -31.5, -0.12625734346013928 -31.5, 31.4 -31.5 M-31.4 -31.5 C-6.341794418372931 -31.5, 18.716411163254136 -31.5, 31.4 -31.5 M31.4 -31.5 C31.455228474983077 -31.5, 31.5 -31.455228474983077, 31.5 -31.4 M31.4 -31.5 C31.455228474983077 -31.5, 31.5 -31.455228474983077, 31.5 -31.4 M31.5 -31.4 C31.5 -8.297910870256413, 31.5 14.804178259487173, 31.5 31.4 M31.5 -31.4 C31.5 -11.729475078128704, 31.5 7.94104984374259, 31.5 31.4 M31.5 31.4 C31.5 31.455228474983077, 31.455228474983077 31.5, 31.4 31.5 M31.5 31.4 C31.5 31.455228474983077, 31.455228474983077 31.5, 31.4 31.5 M31.4 31.5 C12.778066262175273 31.5, -5.8438674756494535 31.5, -31.4 31.5 M31.4 31.5 C15.451616515076884 31.5, -0.4967669698462309 31.5, -31.4 31.5 M-31.4 31.5 C-31.455228474983077 31.5, -31.5 31.455228474983077, -31.5 31.4 M-31.4 31.5 C-31.455228474983077 31.5, -31.5 31.455228474983077, -31.5 31.4 M-31.5 31.4 C-31.5 8.785514932715369, -31.5 -13.82897013456926, -31.5 -31.4 M-31.5 31.4 C-31.5 10.526928007102786, -31.5 -10.346143985794427, -31.5 -31.4 M-31.5 -31.4 C-31.5 -31.455228474983077, -31.455228474983077 -31.5, -31.4 -31.5 M-31.5 -31.4 C-31.5 -31.455228474983077, -31.455228474983077 -31.5, -31.4 -31.5 M-31.4 -31.5 C-31.4 -31.5, -31.4 -31.5, -31.4 -31.5 M-31.4 -31.5 C-31.4 -31.5, -31.4 -31.5, -31.4 -31.5" stroke="#ECECFF" stroke-width="1.3" fill="none" stroke-dasharray="0 0"/></g><g class="label" style="" transform="translate(-100,-26.5)"><rect/><foreignObject width="200" height="124"><div xmlns="http://www.w3.org/1999/xhtml" class="labelBkg" style="display: table; white-space: break-spaces; line-height: 1.5; max-width: 200px; text-align: center; width: 200px;"><span class="nodeLabel markdown-node-label"><p>AWS Bedrock AgentCore Runtime — InvokeAgentRuntime (Coverage / Intake / Risk / Orchestrator)</p></span></div></foreignObject></g><g><path d="M-100 -97.5 L100 -97.5 L100 97.5 L-100 97.5" stroke="none" stroke-width="0" fill="transparent"/></g><g transform="translate(-24.00057604163885,-89.96090698242188)" style="color: #9370DB;"><g><svg xmlns="http://www.w3.org/2000/svg" width="48" height="48" viewBox="0 0 256 153"><path fill="#252f3e" d="M72.392 55.438c0 3.137.34 5.68.933 7.545a45.4 45.4 0 0 0 2.712 6.103c.424.678.593 1.356.593 1.95c0 .847-.508 1.695-1.61 2.543l-5.34 3.56c-.763.509-1.526.763-2.205.763c-.847 0-1.695-.424-2.543-1.187a26 26 0 0 1-3.051-3.984c-.848-1.44-1.696-3.052-2.628-5.001q-9.919 11.697-24.922 11.698c-7.12 0-12.8-2.035-16.954-6.103c-4.153-4.07-6.272-9.495-6.272-16.276c0-7.205 2.543-13.054 7.714-17.462c5.17-4.408 12.037-6.612 20.768-6.612c2.882 0 5.849.254 8.985.678c3.137.424 6.358 1.102 9.749 1.865V29.33c0-6.443-1.357-10.935-3.985-13.563c-2.712-2.628-7.29-3.9-13.817-3.9c-2.967 0-6.018.34-9.155 1.103s-6.188 1.695-9.155 2.882c-1.356.593-2.373.932-2.967 1.102s-1.017.254-1.356.254c-1.187 0-1.78-.848-1.78-2.628v-4.154c0-1.356.17-2.373.593-2.966c.424-.594 1.187-1.187 2.374-1.78q4.45-2.29 10.68-3.815C33.908.763 38.316.255 42.978.255c10.088 0 17.463 2.288 22.21 6.866c4.662 4.577 7.036 11.528 7.036 20.853v27.464zM37.976 68.323c2.798 0 5.68-.508 8.731-1.526c3.052-1.017 5.765-2.882 8.053-5.425c1.357-1.61 2.374-3.39 2.882-5.425c.509-2.034.848-4.493.848-7.375v-3.56a71 71 0 0 0-7.799-1.441a64 64 0 0 0-7.968-.509c-5.68 0-9.833 1.102-12.63 3.391s-4.154 5.51-4.154 9.748c0 3.984 1.017 6.951 3.136 8.986c2.035 2.119 5.002 3.136 8.901 3.136m68.069 9.155c-1.526 0-2.543-.254-3.221-.848c-.678-.508-1.272-1.695-1.78-3.305L81.124 7.799c-.51-1.696-.764-2.798-.764-3.391c0-1.356.678-2.12 2.035-2.12h8.307c1.61 0 2.713.255 3.306.848c.678.509 1.187 1.696 1.695 3.306l14.241 56.117l13.224-56.117c.424-1.695.933-2.797 1.61-3.306c.679-.508 1.866-.847 3.392-.847h6.781c1.61 0 2.713.254 3.39.847c.679.509 1.272 1.696 1.611 3.306l13.394 56.795L168.01 6.442c.508-1.695 1.102-2.797 1.695-3.306c.678-.508 1.78-.847 3.306-.847h7.883c1.357 0 2.12.678 2.12 2.119c0 .424-.085.848-.17 1.356s-.254 1.187-.593 2.12l-20.43 65.525q-.762 2.544-1.78 3.306c-.678.509-1.78.848-3.22.848h-7.29c-1.611 0-2.713-.254-3.392-.848c-.678-.593-1.271-1.695-1.61-3.39l-13.14-54.676l-13.054 54.59c-.423 1.696-.932 2.798-1.61 3.391c-.678.594-1.865.848-3.39.848zm108.927 2.289c-4.408 0-8.816-.509-13.054-1.526c-4.239-1.017-7.544-2.12-9.748-3.39c-1.357-.764-2.29-1.611-2.628-2.374a6 6 0 0 1-.509-2.374V65.78c0-1.78.678-2.628 1.95-2.628a4.8 4.8 0 0 1 1.526.255c.508.17 1.271.508 2.119.847a46 46 0 0 0 9.324 2.967a51 51 0 0 0 10.088 1.017c5.34 0 9.494-.932 12.376-2.797s4.408-4.577 4.408-8.053c0-2.373-.763-4.323-2.289-5.934s-4.408-3.051-8.561-4.408l-12.292-3.814c-6.188-1.95-10.765-4.832-13.563-8.647c-2.797-3.73-4.238-7.883-4.238-12.291q0-5.34 2.289-9.41c1.525-2.712 3.56-5.085 6.103-6.95c2.543-1.95 5.425-3.391 8.816-4.408c3.39-1.017 6.95-1.441 10.68-1.441c1.865 0 3.815.085 5.68.339c1.95.254 3.73.593 5.51.932c1.695.424 3.306.848 4.832 1.357q2.288.762 3.56 1.525c1.187.679 2.034 1.357 2.543 2.12q.763 1.017.763 2.797v3.984c0 1.78-.678 2.713-1.95 2.713c-.678 0-1.78-.34-3.22-1.018q-7.25-3.306-16.276-3.306c-4.832 0-8.647.763-11.275 2.374c-2.627 1.61-3.984 4.069-3.984 7.544c0 2.374.848 4.408 2.543 6.019s4.832 3.221 9.325 4.662l12.037 3.815c6.103 1.95 10.511 4.662 13.139 8.137s3.9 7.46 3.9 11.868c0 3.645-.764 6.951-2.205 9.833c-1.525 2.882-3.56 5.425-6.188 7.46c-2.628 2.119-5.764 3.645-9.409 4.747c-3.815 1.187-7.799 1.78-12.122 1.78"/><path fill="#f90" d="M230.993 120.964c-27.888 20.599-68.408 31.534-103.247 31.534c-48.827 0-92.821-18.056-126.05-48.064c-2.628-2.373-.255-5.594 2.881-3.73c35.942 20.854 80.276 33.484 126.136 33.484c30.94 0 64.932-6.442 96.212-19.666c4.662-2.12 8.646 3.052 4.068 6.442m11.614-13.224c-3.56-4.577-23.566-2.204-32.636-1.102c-2.713.34-3.137-2.034-.678-3.814c15.936-11.19 42.13-7.968 45.181-4.239c3.052 3.815-.848 30.008-15.767 42.554c-2.288 1.95-4.492.933-3.475-1.61c3.39-8.393 10.935-27.296 7.375-31.789"/></svg></g></g></g><g class="icon-shape default" id="my-svg-flowchart-CW-28" data-look="classic" transform="translate(1535.0078125, 1716.5)"><g transform="translate(0,-30)"><path d="M-31.4 -31.5 C-16.65993933610224 -31.5, -1.919878672204483 -31.5, 31.4 -31.5 C31.455228474983077 -31.5, 31.5 -31.455228474983077, 31.5 -31.4 C31.5 -7.853508328716128, 31.5 15.692983342567743, 31.5 31.4 C31.5 31.455228474983077, 31.455228474983077 31.5, 31.4 31.5 C18.448477940732772 31.5, 5.496955881465546 31.5, -31.4 31.5 C-31.455228474983077 31.5, -31.5 31.455228474983077, -31.5 31.4 C-31.5 12.630819648335134, -31.5 -6.138360703329731, -31.5 -31.4 C-31.5 -31.455228474983077, -31.455228474983077 -31.5, -31.4 -31.5 C-31.4 -31.5, -31.4 -31.5, -31.4 -31.5" stroke="none" stroke-width="0" fill="#ECECFF"/><path d="M-31.4 -31.5 C-15.446251516164217 -31.5, 0.5074969676715639 -31.5, 31.4 -31.5 M-31.4 -31.5 C-16.7481337077389 -31.5, -2.0962674154778007 -31.5, 31.4 -31.5 M31.4 -31.5 C31.455228474983077 -31.5, 31.5 -31.455228474983077, 31.5 -31.4 M31.4 -31.5 C31.455228474983077 -31.5, 31.5 -31.455228474983077, 31.5 -31.4 M31.5 -31.4 C31.5 -15.457352977673803, 31.5 0.4852940446523917, 31.5 31.4 M31.5 -31.4 C31.5 -13.889486354081765, 31.5 3.6210272918364694, 31.5 31.4 M31.5 31.4 C31.5 31.455228474983077, 31.455228474983077 31.5, 31.4 31.5 M31.5 31.4 C31.5 31.455228474983077, 31.455228474983077 31.5, 31.4 31.5 M31.4 31.5 C16.570207799279054 31.5, 1.740415598558105 31.5, -31.4 31.5 M31.4 31.5 C6.994658385414358 31.5, -17.410683229171283 31.5, -31.4 31.5 M-31.4 31.5 C-31.455228474983077 31.5, -31.5 31.455228474983077, -31.5 31.4 M-31.4 31.5 C-31.455228474983077 31.5, -31.5 31.455228474983077, -31.5 31.4 M-31.5 31.4 C-31.5 7.109719773306264, -31.5 -17.18056045338747, -31.5 -31.4 M-31.5 31.4 C-31.5 13.940236322171447, -31.5 -3.519527355657104, -31.5 -31.4 M-31.5 -31.4 C-31.5 -31.455228474983077, -31.455228474983077 -31.5, -31.4 -31.5 M-31.5 -31.4 C-31.5 -31.455228474983077, -31.455228474983077 -31.5, -31.4 -31.5 M-31.4 -31.5 C-31.4 -31.5, -31.4 -31.5, -31.4 -31.5 M-31.4 -31.5 C-31.4 -31.5, -31.4 -31.5, -31.4 -31.5" stroke="#ECECFF" stroke-width="1.3" fill="none" stroke-dasharray="0 0"/></g><g class="label" style="" transform="translate(-100,9.5)"><rect/><foreignObject width="200" height="52"><div xmlns="http://www.w3.org/1999/xhtml" class="labelBkg" style="display: table; white-space: break-spaces; line-height: 1.5; max-width: 200px; text-align: center; width: 200px;"><span class="nodeLabel markdown-node-label"><p>CloudWatch — OTEL traces / observability</p></span></div></foreignObject></g><g><path d="M-100 -61.5 L100 -61.5 L100 61.5 L-100 61.5" stroke="none" stroke-width="0" fill="transparent"/></g><g transform="translate(-24,-54)" style="color: #9370DB;"><g><svg xmlns="http://www.w3.org/2000/svg" width="48" height="48" viewBox="0 0 256 256"><defs><linearGradient id="IconifyId19f144e6e05ffc1b51" x1="0%" x2="100%" y1="100%" y2="0%"><stop offset="0%" stop-color="#b0084d"/><stop offset="100%" stop-color="#ff4f8b"/></linearGradient></defs><path fill="url(#IconifyId19f144e6e05ffc1b51)" d="M0 0h256v256H0z"/><path fill="#fff" d="M176.19 149.688c0-12.51-10.246-22.688-22.84-22.688s-22.835 10.178-22.835 22.688s10.242 22.687 22.836 22.687s22.839-10.178 22.839-22.687m6.433 0c0 16.034-13.13 29.078-29.272 29.078c-16.139 0-29.27-13.044-29.27-29.078c0-16.035 13.131-29.078 29.27-29.078c16.141 0 29.272 13.043 29.272 29.078m27.008 43.827l-22.427-20.067a41.7 41.7 0 0 1-6.231 6.915l22.395 20.064c1.91 1.713 4.883 1.553 6.61-.345c1.718-1.898 1.564-4.848-.347-6.567m-56.28-8.998c19.335 0 35.065-15.625 35.065-34.83c0-19.207-15.73-34.829-35.065-34.829c-19.333 0-35.063 15.622-35.063 34.83c0 19.204 15.73 34.83 35.063 34.83m61.407 19.842a11.15 11.15 0 0 1-8.267 3.64a11.12 11.12 0 0 1-7.427-2.825l-23.286-20.86c-6.476 4.155-14.16 6.593-22.427 6.593c-22.881 0-41.496-18.492-41.496-41.22c0-22.73 18.615-41.22 41.496-41.22c22.884 0 41.499 18.49 41.499 41.22c0 6.521-1.573 12.67-4.3 18.156l23.388 20.926c4.542 4.08 4.909 11.069.82 15.59M68.097 94.056c0 1.662.103 3.317.3 4.918a3.194 3.194 0 0 1-2.635 3.537c-7.91 2.03-20.928 8.17-20.928 26.595c0 13.913 7.723 21.591 14.205 25.586c2.213 1.386 4.831 2.124 7.594 2.153l38.791.035l-.006 6.391l-38.82-.035c-3.986-.042-7.768-1.122-10.97-3.125c-6.423-3.96-17.228-13.264-17.228-31.005c0-21.386 14.72-29.292 23.36-32.085a46 46 0 0 1-.096-2.965c0-17.472 11.93-35.593 27.75-42.147c18.503-7.7 38.106-3.882 52.43 10.206c4.44 4.365 8.09 9.666 10.892 15.798c3.764-3.096 8.402-4.806 13.292-4.806c9.608 0 20.423 7.244 22.35 23.087c8.997 2.06 28.008 9.263 28.008 33.158c0 9.542-3.01 17.421-8.952 23.422l-4.587-4.483c4.716-4.76 7.106-11.132 7.106-18.939c0-20.9-17.615-26.1-25.194-27.362a3.2 3.2 0 0 1-2.117-1.345a3.17 3.17 0 0 1-.518-2.358c-1.051-12.973-8.81-18.789-16.096-18.789c-4.597 0-8.907 2.224-11.828 6.103a3.22 3.22 0 0 1-3.05 1.246a3.22 3.22 0 0 1-2.55-2.073c-2.635-7.25-6.43-13.348-11.282-18.115c-12.413-12.21-29.388-15.52-45.423-8.851c-13.347 5.528-23.798 21.447-23.798 36.248"/></svg></g></g></g><g class="node default ext" id="my-svg-flowchart-RAW-35" data-look="classic" transform="translate(1929.5546875, 638.5)"><rect class="basic label-container" style="fill:#3a3f44 !important;stroke:#22262a !important" x="-125.4453125" y="-39" width="250.890625" height="78"/><g class="label" style="color:#ddd !important" transform="translate(-95.4453125, -24)"><rect/><foreignObject width="190.890625" height="48"><div style="color: rgb(221, 221, 221) !important; display: table-cell; white-space: nowrap; line-height: 1.5; max-width: 200px; text-align: center;" xmlns="http://www.w3.org/1999/xhtml"><span style="color:#ddd !important" class="nodeLabel"><p>POST /api/raw/execute<br />(bypass — contrast screen)</p></span></div></foreignObject></g></g><g class="node default gate" id="my-svg-flowchart-BLOCK-41" data-look="classic" transform="translate(1952.921875, 1398)"><rect class="basic label-container" style="fill:#c79100 !important;stroke:#7a5800 !important" x="-130" y="-75" width="260" height="150"/><g class="label" style="color:#fff !important" transform="translate(-100, -60)"><rect/><foreignObject width="200" height="120"><div style="color: rgb(255, 255, 255) !important; display: table; white-space: break-spaces; line-height: 1.5; max-width: 200px; text-align: center; width: 200px;" xmlns="http://www.w3.org/1999/xhtml"><span style="color:#fff !important" class="nodeLabel"><p>403 BLOCKED<br />NO_CERTIFICATE / REVOKED /<br />EXPIRED / SIGNATURE_INVALID</p></span></div></foreignObject></g></g><g class="node default gate" id="my-svg-flowchart-REVOKE-47" data-look="classic" transform="translate(238.90625, 638.5)"><rect class="basic label-container" style="fill:#c79100 !important;stroke:#7a5800 !important" x="-130" y="-39" width="260" height="78"/><g class="label" style="color:#fff !important" transform="translate(-100, -24)"><rect/><foreignObject width="200" height="48"><div style="color: rgb(255, 255, 255) !important; display: table; white-space: break-spaces; line-height: 1.5; max-width: 200px; text-align: center; width: 200px;" xmlns="http://www.w3.org/1999/xhtml"><span style="color:#fff !important" class="nodeLabel"><p>POST /api/agents/{id}/revoke</p></span></div></foreignObject></g></g></g></g></g><defs><filter id="my-svg-drop-shadow" height="130%" width="130%"><feDropShadow dx="4" dy="4" stdDeviation="0" flood-opacity="0.06" flood-color="#000000"/></filter></defs><defs><filter id="my-svg-drop-shadow-small" height="150%" width="150%"><feDropShadow dx="2" dy="2" stdDeviation="0" flood-opacity="0.06" flood-color="#000000"/></filter></defs></svg>